<svg id="visual" viewBox="0 0 900 600" width="900" height="600" xmlns="http://www.w3.org/2000/svg" xmlns:xlink="http://www.w3.org/1999/xlink" version="1.1"><rect x="0" y="0" width="900" height="600" fill="#151a1f"></rect><path d="M0 178L25 188.8C50 199.7 100 221.3 150 230.3C200 239.3 250 235.7 300 216.7C350 197.7 400 163.3 450 148.3C500 133.3 550 137.7 600 149.3C650 161 700 180 750 201.2C800 222.3 850 245.7 875 257.3L900 269L900 0L875 0C850 0 800 0 750 0C700 0 650 0 600 0C550 0 500 0 450 0C400 0 350 0 300 0C250 0 200 0 150 0C100 0 50 0 25 0L0 0Z" fill="#8d0a0a" stroke-linecap="round" stroke-linejoin="miter"></path></svg>