<svg id="visual" viewBox="0 0 900 600" width="900" height="600" xmlns="http://www.w3.org/2000/svg" xmlns:xlink="http://www.w3.org/1999/xlink" version="1.1"><rect x="0" y="0" width="900" height="600" fill="#151a1f"></rect><path d="M0 197L25 187.5C50 178 100 159 150 151.5C200 144 250 148 300 167.3C350 186.7 400 221.3 450 239.2C500 257 550 258 600 250.5C650 243 700 227 750 215.2C800 203.3 850 195.7 875 191.8L900 188L900 0L875 0C850 0 800 0 750 0C700 0 650 0 600 0C550 0 500 0 450 0C400 0 350 0 300 0C250 0 200 0 150 0C100 0 50 0 25 0L0 0Z" fill="#8d0a0a" stroke-linecap="round" stroke-linejoin="miter"></path></svg>