<svg id="visual" viewBox="0 0 900 600" width="900" height="600" xmlns="http://www.w3.org/2000/svg" xmlns:xlink="http://www.w3.org/1999/xlink" version="1.1"><rect x="0" y="0" width="900" height="600" fill="#151a1f"></rect><path d="M0 445L18.8 446.7C37.7 448.3 75.3 451.7 112.8 437.8C150.3 424 187.7 393 225.2 386.3C262.7 379.7 300.3 397.3 337.8 415.2C375.3 433 412.7 451 450.2 442C487.7 433 525.3 397 562.8 380.2C600.3 363.3 637.7 365.7 675.2 369.2C712.7 372.7 750.3 377.3 787.8 376.8C825.3 376.3 862.7 370.7 881.3 367.8L900 365L900 601L881.3 601C862.7 601 825.3 601 787.8 601C750.3 601 712.7 601 675.2 601C637.7 601 600.3 601 562.8 601C525.3 601 487.7 601 450.2 601C412.7 601 375.3 601 337.8 601C300.3 601 262.7 601 225.2 601C187.7 601 150.3 601 112.8 601C75.3 601 37.7 601 18.8 601L0 601Z" fill="#8d0a0a" stroke-linecap="round" stroke-linejoin="miter"></path></svg>