<svg id="visual" viewBox="0 0 900 600" width="900" height="600" xmlns="http://www.w3.org/2000/svg" xmlns:xlink="http://www.w3.org/1999/xlink" version="1.1"><rect x="0" y="0" width="900" height="600" fill="#151a1f"></rect><path d="M0 357L25 350.2C50 343.3 100 329.7 150 335.8C200 342 250 368 300 393.8C350 419.7 400 445.3 450 457.3C500 469.3 550 467.7 600 442C650 416.3 700 366.7 750 350.5C800 334.3 850 351.7 875 360.3L900 369L900 601L875 601C850 601 800 601 750 601C700 601 650 601 600 601C550 601 500 601 450 601C400 601 350 601 300 601C250 601 200 601 150 601C100 601 50 601 25 601L0 601Z" fill="#8d0a0a" stroke-linecap="round" stroke-linejoin="miter"></path></svg>