<svg id="visual" viewBox="0 0 900 600" width="900" height="600" xmlns="http://www.w3.org/2000/svg" xmlns:xlink="http://www.w3.org/1999/xlink" version="1.1"><rect x="0" y="0" width="900" height="600" fill="#151a1f"></rect><path d="M0 420L25 409.2C50 398.3 100 376.7 150 367.7C200 358.7 250 362.3 300 381.3C350 400.3 400 434.7 450 449.7C500 464.7 550 460.3 600 448.7C650 437 700 418 750 396.8C800 375.7 850 352.3 875 340.7L900 329L900 601L875 601C850 601 800 601 750 601C700 601 650 601 600 601C550 601 500 601 450 601C400 601 350 601 300 601C250 601 200 601 150 601C100 601 50 601 25 601L0 601Z" fill="#8d0a0a" stroke-linecap="round" stroke-linejoin="miter"></path></svg>